<svg width="20" height="20" viewBox="0 0 20 20" fill="none" xmlns="http://www.w3.org/2000/svg">
<path fill-rule="evenodd" clip-rule="evenodd" d="M16.2506 2.59504C16.4282 2.29905 16.8121 2.20307 17.1081 2.38067L17.405 2.5588C18.6187 3.28706 18.6187 5.04614 17.405 5.7744C17.1136 5.94924 16.7801 6.0416 16.4403 6.0416H3.99992C3.42462 6.0416 2.95825 6.50797 2.95825 7.08326V7.70826H17.0669C17.1527 7.46552 17.3842 7.2916 17.6563 7.2916C18.0015 7.2916 18.2813 7.57142 18.2813 7.9166V13.7499C18.2813 15.0156 17.2553 16.0416 15.9897 16.0416H3.99992C2.73427 16.0416 1.70825 15.0156 1.70825 13.7499V7.08326C1.70825 5.81761 2.73427 4.7916 3.99992 4.7916H16.4403C16.5536 4.7916 16.6647 4.76081 16.7619 4.70253C17.1665 4.45978 17.1665 3.87342 16.7619 3.63067L16.465 3.45253C16.169 3.27494 16.073 2.89103 16.2506 2.59504ZM2.95825 13.7499V8.95826H17.0313V13.7499C17.0313 14.3252 16.565 14.7916 15.9897 14.7916H3.99992C3.42462 14.7916 2.95825 14.3252 2.95825 13.7499ZM5.00008 12.2916C4.6549 12.2916 4.37508 12.5714 4.37508 12.9166C4.37508 13.2618 4.6549 13.5416 5.00008 13.5416H6.95321C7.29838 13.5416 7.57821 13.2618 7.57821 12.9166C7.57821 12.5714 7.29838 12.2916 6.95321 12.2916H5.00008Z" fill="white"/>
</svg>
