<svg width="28" height="28" viewBox="0 0 28 28" fill="none" xmlns="http://www.w3.org/2000/svg">
<path fill-rule="evenodd" clip-rule="evenodd" d="M5.21478 5.21478C5.55649 4.87307 6.11051 4.87307 6.45221 5.21478L14.0002 12.7627L21.5481 5.21478C21.8898 4.87307 22.4438 4.87307 22.7855 5.21478C23.1273 5.55649 23.1273 6.11051 22.7855 6.45221L15.2376 14.0002L22.7855 21.5481C23.1273 21.8898 23.1273 22.4438 22.7855 22.7855C22.4438 23.1273 21.8898 23.1273 21.5481 22.7855L14.0002 15.2376L6.45221 22.7855C6.11051 23.1273 5.55649 23.1273 5.21478 22.7855C4.87307 22.4438 4.87307 21.8898 5.21478 21.5481L12.7627 14.0002L5.21478 6.45221C4.87307 6.11051 4.87307 5.55649 5.21478 5.21478Z" fill="black"/>
</svg>
