<svg width="20" height="20" viewBox="0 0 20 20" fill="none" xmlns="http://www.w3.org/2000/svg">
<path fill-rule="evenodd" clip-rule="evenodd" d="M16.8177 1.27198C16.5998 1.00427 16.2061 0.963895 15.9384 1.18179C15.6707 1.39969 15.6303 1.79336 15.8482 2.06106L15.9458 2.18103C16.2649 2.573 16.1229 3.16113 15.6602 3.36444C15.4287 3.4662 15.1617 3.44692 14.9472 3.31293L13.9212 2.67216L13.9049 2.66203L13.8881 2.65291C12.7528 2.037 11.4571 1.68795 10.0829 1.68795C5.62472 1.68795 1.54126 5.38651 1.54126 9.99986C1.54126 14.6153 5.62692 18.2915 10.0829 18.2915C14.5444 18.2915 18.5452 14.6353 18.5452 10.0251C18.5452 8.72613 18.2528 7.49483 17.7306 6.39786C17.5822 6.0862 17.2093 5.95384 16.8976 6.10221C16.5859 6.25059 16.4536 6.62352 16.6019 6.93518C17.0457 7.86718 17.2952 8.91521 17.2952 10.0251C17.2952 13.8944 13.9057 17.0415 10.0829 17.0415C6.25466 17.0415 2.79126 13.8639 2.79126 9.99986C2.79126 6.13368 6.25686 2.93795 10.0829 2.93795C11.2361 2.93795 12.3218 3.22869 13.2756 3.74275L14.2851 4.37316C14.8502 4.72606 15.5532 4.77685 16.1631 4.50883C17.3818 3.97334 17.7556 2.42433 16.9153 1.39195L16.4325 1.78492L16.9153 1.39195L16.8177 1.27198ZM6.46854 7.3236C6.796 7.21444 7.14995 7.39142 7.25911 7.71888L8.33284 10.9401L9.40658 7.71888C9.49166 7.46367 9.73049 7.29152 9.99951 7.29152C10.2685 7.29152 10.5074 7.46367 10.5924 7.71888L11.6662 10.9401L12.7399 7.71888C12.8491 7.39142 13.203 7.21444 13.5305 7.3236C13.858 7.43275 14.0349 7.7867 13.9258 8.11417L13.3667 9.79152H14.1662C14.5114 9.79152 14.7912 10.0713 14.7912 10.4165C14.7912 10.7617 14.5114 11.0415 14.1662 11.0415H12.95L12.2591 13.1142C12.174 13.3694 11.9352 13.5415 11.6662 13.5415C11.3972 13.5415 11.1583 13.3694 11.0733 13.1142L9.99951 9.89295L8.92577 13.1142C8.8407 13.3694 8.60186 13.5415 8.33284 13.5415C8.06383 13.5415 7.82499 13.3694 7.73992 13.1142L7.04904 11.0415H5.83284C5.48767 11.0415 5.20784 10.7617 5.20784 10.4165C5.20784 10.0713 5.48767 9.79152 5.83284 9.79152H6.63237L6.07325 8.11417C5.9641 7.7867 6.14107 7.43275 6.46854 7.3236Z" fill="black"/>
</svg>
