<svg width="20" height="20" viewBox="0 0 20 20" fill="none" xmlns="http://www.w3.org/2000/svg">
<path fill-rule="evenodd" clip-rule="evenodd" d="M7.08341 1.70557C5.81776 1.70557 4.79175 2.73158 4.79175 3.99723V16.0155C4.79175 17.2811 5.81776 18.3071 7.08341 18.3071H13.0858C14.3515 18.3071 15.3775 17.2811 15.3775 16.0155V8.04671C15.3775 7.70153 15.0977 7.42171 14.7525 7.42171C14.4073 7.42171 14.1275 7.70153 14.1275 8.04671V16.0155C14.1275 16.5908 13.6611 17.0571 13.0858 17.0571H7.08341C6.50812 17.0571 6.04175 16.5908 6.04175 16.0155V3.99723C6.04175 3.42194 6.50812 2.95557 7.08341 2.95557H7.5625L7.84812 3.97109C7.98458 4.45628 8.42709 4.7915 8.9311 4.7915H10.9861C11.4901 4.7915 11.9326 4.45628 12.069 3.97109L12.3547 2.95557H13.1768C13.7018 2.95557 14.1275 3.38123 14.1275 3.90631V4.04683C14.1275 4.41641 14.2435 4.77666 14.4593 5.07675C15.2943 6.23834 17.0919 5.97565 17.5596 4.62371L17.6741 4.29271C17.7869 3.9665 17.614 3.61058 17.2878 3.49772C16.9615 3.38487 16.6056 3.55783 16.4928 3.88404L16.3783 4.21504C16.2419 4.60926 15.7177 4.68585 15.4742 4.34715C15.4113 4.25964 15.3775 4.1546 15.3775 4.04683V3.90631C15.3775 2.69087 14.3922 1.70557 13.1768 1.70557H7.08341ZM11.0562 2.95557H8.861L9.02579 3.5415H10.8914L11.0562 2.95557ZM8.25529 15.8332C8.25529 15.488 8.53511 15.2082 8.88029 15.2082H11.1069C11.452 15.2082 11.7319 15.488 11.7319 15.8332C11.7319 16.1783 11.452 16.4582 11.1069 16.4582H8.88029C8.53511 16.4582 8.25529 16.1783 8.25529 15.8332Z" fill="black"/>
</svg>
