<svg width="24" height="24" viewBox="0 0 24 24" fill="none" xmlns="http://www.w3.org/2000/svg">
<circle cx="12" cy="12" r="10" fill="#A646F4"/>
<path d="M8.5069 11.4178C8.11637 11.0273 7.48321 11.0273 7.09269 11.4178C6.70217 11.8084 6.70218 12.4415 7.09271 12.832L8.5069 11.4178ZM10.4792 14.8043L9.77215 15.5114C10.1627 15.9019 10.7958 15.9019 11.1864 15.5114L10.4792 14.8043ZM16.7903 9.90729C17.1808 9.51676 17.1808 8.8836 16.7903 8.49308C16.3997 8.10256 15.7666 8.10257 15.3761 8.4931L16.7903 9.90729ZM7.09271 12.832L9.77215 15.5114L11.1863 14.0972L8.5069 11.4178L7.09271 12.832ZM11.1864 15.5114L16.7903 9.90729L15.3761 8.4931L9.77213 14.0972L11.1864 15.5114Z" fill="white"/>
</svg>
