<svg width="61" height="18" viewBox="0 0 61 18" fill="none" xmlns="http://www.w3.org/2000/svg">
<path fill-rule="evenodd" clip-rule="evenodd" d="M1.28449 2L0 2.28213V13.1719H1.28449V2ZM1.74512 9.19912L5.12386 13.3696L6.11558 12.5946L3.25301 9.12896L5.72468 6.0014L4.71931 5.26894L1.74512 9.19912ZM9.6631 12.2568C9.83938 12.2568 10.0222 12.2333 10.2121 12.1861C10.4022 12.1394 10.5921 12.0784 10.7822 12.0032C10.9721 11.9279 11.1512 11.8363 11.3175 11.7284C11.4847 11.6202 11.6331 11.5051 11.7629 11.3832V9.57989H10.4277C9.75132 9.57989 9.25773 9.69727 8.94676 9.93202C8.63693 10.1669 8.48145 10.5379 8.48145 11.0451C8.48145 11.8527 8.87495 12.2568 9.6631 12.2568ZM7.25293 11.1013C7.25293 10.3216 7.51093 9.72736 8.02824 9.31916C8.54457 8.91064 9.29633 8.70605 10.2827 8.70605H11.7633V8.21309C11.7633 7.0203 11.2416 6.42407 10.1989 6.42407C9.86449 6.42407 9.51257 6.47095 9.14539 6.56489C8.77723 6.65882 8.4401 6.7762 8.13287 6.91702L7.75545 6.00128C8.13726 5.78521 8.54912 5.61882 8.99185 5.50095C9.43345 5.38406 9.86449 5.32488 10.2827 5.32488C12.0887 5.32488 12.9914 6.29702 12.9914 8.24096V13.1718H12.0424L11.8887 12.3267C11.5071 12.6367 11.0998 12.8761 10.6671 13.0454C10.2344 13.2146 9.82257 13.2989 9.43085 13.2989C8.75189 13.2989 8.21914 13.1039 7.83279 12.7143C7.44643 12.3244 7.25293 11.7869 7.25293 11.1013ZM21.0016 6.00124L19.9962 5.26894L17.023 9.19912L20.4018 13.3696L21.3925 12.5946L18.5309 9.12896L21.0016 6.00124ZM15.2779 13.1719H16.5622V2L15.2779 2.28197V13.1719ZM24.9404 12.2568C25.1159 12.2568 25.2995 12.2333 25.4894 12.1861C25.6795 12.1394 25.8694 12.0784 26.0595 12.0032C26.2495 11.9279 26.4275 11.8363 26.5949 11.7284C26.7611 11.6202 26.9093 11.5051 27.0394 11.3832V9.57989H25.7049C25.0277 9.57989 24.5341 9.69727 24.2241 9.93202C23.9133 10.1669 23.7588 10.5379 23.7588 11.0451C23.7588 11.8527 24.1523 12.2568 24.9404 12.2568ZM22.5303 11.1013C22.5303 10.3216 22.7884 9.72736 23.3049 9.31916C23.8219 8.91064 24.5729 8.70605 25.5602 8.70605H27.04V8.21309C27.04 7.0203 26.5191 6.42407 25.4765 6.42407C25.1409 6.42407 24.7901 6.47095 24.4221 6.56489C24.0538 6.65882 23.7166 6.7762 23.4102 6.91702L23.033 6.00128C23.4148 5.78521 23.8266 5.61882 24.2682 5.50095C24.7101 5.38406 25.1409 5.32488 25.5602 5.32488C27.3654 5.32488 28.2687 6.29702 28.2687 8.24096V13.1718H27.3189L27.1652 12.3267C26.7836 12.6367 26.3773 12.8761 25.9436 13.0454C25.511 13.2146 25.0993 13.2989 24.7082 13.2989C24.0284 13.2989 23.4957 13.1039 23.1095 12.7143C22.7231 12.3244 22.5303 11.7869 22.5303 11.1013ZM31.8945 7.14223C32.2528 6.63502 32.7673 6.38141 33.4372 6.38141C34.1163 6.38141 34.6353 6.63502 34.9943 7.14223C35.3524 7.64945 35.5316 8.39142 35.5316 9.36814C35.5316 10.3359 35.3524 11.066 34.9943 11.559C34.6353 12.0519 34.1163 12.2987 33.4372 12.2987C32.7673 12.2987 32.2528 12.0519 31.8945 11.559C31.5357 11.066 31.3564 10.3359 31.3564 9.36814C31.3564 8.39142 31.5357 7.64945 31.8945 7.14223ZM35.9361 6.38169C35.3317 5.68693 34.4981 5.33923 33.4373 5.33923C32.3855 5.33923 31.5547 5.68693 30.9448 6.38169C30.3347 7.07694 30.0303 8.07252 30.0303 9.36843C30.0303 10.6456 30.3331 11.6276 30.9383 12.3132C31.5429 12.9983 32.3765 13.3414 33.4373 13.3414C34.5072 13.3414 35.3434 12.9983 35.9434 12.3132C36.5442 11.6276 36.8443 10.6456 36.8443 9.36843C36.8443 8.07252 36.5415 7.07694 35.9361 6.38169Z" fill="white"/>
<g clip-path="url(#clip0_2402_25135)">
<path d="M40.8643 12.8514V15.6888H39V5.28517H40.3269L40.548 5.91273C40.8191 5.63066 41.1459 5.40888 41.5074 5.26169C41.8689 5.11451 42.257 5.04518 42.6467 5.05818C44.564 5.05818 45.4265 6.5247 45.4265 8.90585C45.4265 11.3983 44.0377 13.0094 42.0496 13.0094C41.6503 13.0161 41.2523 12.9629 40.8687 12.8514H40.8643ZM40.8687 6.86741V11.5273C41.0883 11.56 41.3102 11.5742 41.5321 11.5696C43.0049 11.5696 43.5335 10.5304 43.5335 8.89917C43.5335 7.50164 43.215 6.58924 42.0054 6.58924C41.6113 6.60019 41.2236 6.69261 40.8665 6.86073" fill="white"/>
<path d="M49.3536 8.22046H50.5212V7.95564C50.5212 7.13003 50.2713 6.65825 49.1744 6.65825C48.4844 6.65193 47.8043 6.82436 47.1996 7.15896L46.6865 5.84599C47.4954 5.327 48.4363 5.05492 49.3956 5.06266C51.2731 5.06266 52.2705 6.00177 52.2705 7.95564V12.8003H50.9635L50.7556 12.1594C50.1321 12.6793 49.3537 12.9746 48.5442 12.9983C47.1134 12.9983 46.3217 12.1304 46.3217 10.635C46.3217 9.05275 47.3765 8.22491 49.3646 8.22491L49.3536 8.22046ZM50.5323 10.9198V9.45109H49.5327C48.5309 9.45109 48.0024 9.86501 48.0024 10.6194C48.0024 11.1602 48.3098 11.5096 48.9201 11.5096C49.5088 11.4987 50.0767 11.2886 50.5323 10.9132" fill="white"/>
<path d="M57.7221 12.0121C57.0587 13.9059 56.205 15.2323 55.0396 16.0022L53.8852 14.9185C54.5778 14.3406 55.1536 13.6342 55.5814 12.8378L52.9962 5.52741L54.845 5.01558L56.5235 10.9284L58.1777 5L60.011 5.54299L57.7221 12.0121Z" fill="white"/>
</g>
<defs>
<clipPath id="clip0_2402_25135">
<rect width="21" height="11" fill="white" transform="translate(39 5)"/>
</clipPath>
</defs>
</svg>
