<svg width="20" height="20" viewBox="0 0 20 20" fill="none" xmlns="http://www.w3.org/2000/svg">
<path fill-rule="evenodd" clip-rule="evenodd" d="M2 0C0.895431 0 0 0.895431 0 2V18C0 19.1046 0.895431 20 2 20H18C19.1046 20 20 19.1046 20 18V2C20 0.895431 19.1046 0 18 0H2ZM4 9.74334C4 7.1235 6.68617 5 10 5C13.3137 5 16 7.1235 16 9.74334C16 12.3628 13.3137 14.4868 10 14.4868C9.61933 14.4868 9.24707 14.4583 8.88629 14.4049C8.22139 14.8571 6.68036 15.9046 6.57722 15.9733C6.44568 16.0611 6.24476 16.0655 6.32595 15.7392C6.392 15.4764 6.72089 14.2475 6.84637 13.7789C5.13817 12.9428 4 11.4484 4 9.74334Z" fill="white"/>
</svg>
