<svg width="20" height="21" viewBox="0 0 20 21" fill="none" xmlns="http://www.w3.org/2000/svg">
<path fill-rule="evenodd" clip-rule="evenodd" d="M6.49996 3.75C6.49996 3.33579 6.16417 3 5.74996 3C5.33575 3 4.99996 3.33579 4.99996 3.75V3.83333H3.66663C2.56206 3.83333 1.66663 4.72877 1.66663 5.83333V16C1.66663 17.1046 2.56206 18 3.66663 18H16.3333C17.4379 18 18.3333 17.1046 18.3333 16V5.83333C18.3333 4.72876 17.4379 3.83333 16.3333 3.83333H15.25V3.75C15.25 3.33579 14.9142 3 14.5 3C14.0857 3 13.75 3.33579 13.75 3.75V3.83333H6.49996V3.75ZM13.75 5.58333V5.33333H6.49996V5.58333C6.49996 5.99755 6.16417 6.33333 5.74996 6.33333C5.33575 6.33333 4.99996 5.99755 4.99996 5.58333V5.33333H3.66663C3.39049 5.33333 3.16663 5.55719 3.16663 5.83333V7.33333H16.8333V5.83333C16.8333 5.55719 16.6094 5.33333 16.3333 5.33333H15.25V5.58333C15.25 5.99755 14.9142 6.33333 14.5 6.33333C14.0857 6.33333 13.75 5.99755 13.75 5.58333ZM16.8333 8.83333H3.16663V16C3.16663 16.2761 3.39048 16.5 3.66663 16.5H16.3333C16.6094 16.5 16.8333 16.2761 16.8333 16V8.83333Z" fill="#196EED"/>
</svg>
