<svg width="260" height="308" viewBox="0 0 260 308" fill="none" xmlns="http://www.w3.org/2000/svg">
<g opacity="0.3" filter="url(#filter0_f_473_14583)">
<rect x="24" y="24" width="212" height="260" rx="20" fill="url(#paint0_linear_473_14583)"/>
</g>
<rect y="4" width="260" height="260" rx="36" fill="url(#paint1_linear_473_14583)"/>
<path d="M85.5536 111.132V127.404H87.0476V111.132H85.5536ZM74.1056 112.878V114.102H83.3216V112.878H74.1056ZM73.8536 123.39C76.8236 123.372 80.7296 123.318 84.2396 122.76L84.1496 121.662C80.6936 122.076 76.6976 122.112 73.6736 122.112L73.8536 123.39ZM75.9056 113.796V122.454H77.3456V113.796H75.9056ZM80.0636 113.796V122.454H81.5216V113.796H80.0636ZM97.2882 112.248V112.824C97.2882 115.992 95.3442 118.458 90.7182 119.79L91.2942 120.996C96.4962 119.466 98.8362 116.442 98.8362 112.248H97.2882ZM91.4202 112.248V113.454H98.0982V112.248H91.4202ZM97.0902 115.236L90.6102 115.542L90.8622 116.766L97.0902 116.298V115.236ZM102.094 111.15V120.924H103.606V111.15H102.094ZM98.2242 121.158C94.8582 121.158 92.7702 122.31 92.7702 124.272C92.7702 126.234 94.8582 127.386 98.2242 127.386C101.59 127.386 103.696 126.234 103.696 124.272C103.696 122.31 101.59 121.158 98.2242 121.158ZM98.2242 122.346C100.69 122.346 102.202 123.048 102.202 124.272C102.202 125.478 100.69 126.198 98.2242 126.198C95.7582 126.198 94.2462 125.478 94.2462 124.272C94.2462 123.048 95.7582 122.346 98.2242 122.346ZM122.961 111.078V120.06H124.455V111.078H122.961ZM123.825 114.984V116.244H126.867V114.984H123.825ZM114.123 120.888V122.022H122.997V123.444H114.159V126.504H115.635V124.524H124.455V120.888H114.123ZM114.159 126.072V127.224H125.049V126.072H114.159ZM111.873 112.59V113.76H121.485V112.59H111.873ZM116.679 114.48C114.303 114.48 112.773 115.506 112.773 117.162C112.773 118.8 114.303 119.808 116.679 119.808C119.019 119.808 120.567 118.8 120.567 117.162C120.567 115.506 119.019 114.48 116.679 114.48ZM116.679 115.578C118.173 115.578 119.145 116.19 119.145 117.162C119.145 118.116 118.173 118.728 116.679 118.728C115.167 118.728 114.195 118.116 114.195 117.162C114.195 116.19 115.167 115.578 116.679 115.578ZM115.923 110.952V113.4H117.417V110.952H115.923ZM140.317 112.824V112.986C140.317 117.414 138.697 121.05 133.549 123.588L134.359 124.74C140.191 121.842 141.775 117.522 141.775 112.824H140.317ZM134.431 112.824V114.03H141.199V112.824H134.431ZM140.083 116.856L133.621 117.288L133.855 118.62L140.083 118.008V116.856ZM144.403 111.114V127.404H145.915V111.114H144.403ZM145.501 117.72V118.962H148.507V117.72H145.501ZM151.853 119.898V121.104H163.031V119.898H151.853ZM149.963 124.074V125.316H164.705V124.074H149.963ZM151.853 112.518V120.276H153.365V113.742H162.851V112.518H151.853ZM152.879 116.154V117.342H162.509V116.154H152.879ZM171.796 112.302C169.258 112.302 167.422 113.868 167.422 116.136C167.422 118.422 169.258 119.988 171.796 119.988C174.334 119.988 176.152 118.422 176.152 116.136C176.152 113.868 174.334 112.302 171.796 112.302ZM171.796 113.598C173.47 113.598 174.694 114.624 174.694 116.136C174.694 117.648 173.47 118.692 171.796 118.692C170.104 118.692 168.88 117.648 168.88 116.136C168.88 114.624 170.104 113.598 171.796 113.598ZM178.276 111.114V127.422H179.77V111.114H178.276ZM166.81 123.858C169.708 123.858 173.686 123.84 177.34 123.138L177.214 122.04C173.668 122.598 169.564 122.616 166.594 122.616L166.81 123.858ZM53.9634 139.132V155.404H55.4754V139.132H53.9634ZM55.1154 145.522V146.8H58.1394V145.522H55.1154ZM43.5954 140.5V151.498H51.1914V140.5H49.7154V144.802H45.0714V140.5H43.5954ZM45.0714 145.99H49.7154V150.274H45.0714V145.99ZM61.27 140.716V141.94H71.602V140.716H61.27ZM59.506 151.966V153.19H74.212V151.966H59.506ZM70.99 140.716V142.264C70.99 144.19 70.99 146.476 70.288 149.626L71.782 149.806C72.448 146.476 72.448 144.244 72.448 142.264V140.716H70.99ZM71.314 144.622L60.82 145.036L61.054 146.332L71.314 145.756V144.622ZM65.23 147.754V152.416H66.724V147.754H65.23ZM77.9366 146.926V148.15H89.1146V146.926H77.9366ZM76.0826 151.966V153.208H90.8246V151.966H76.0826ZM77.9366 140.626V147.466H79.4306V141.868H88.9526V140.626H77.9366ZM92.6232 146.692V147.826H107.383V146.692H92.6232ZM94.3692 149.14V150.202H104.071V151.588H94.4232V154.522H95.8992V152.614H105.529V149.14H94.3692ZM94.4232 154.126V155.206H106.051V154.126H94.4232ZM94.4952 139.6V140.662H104.017V141.976H94.5312V144.748H96.0072V142.984H105.475V139.6H94.4952ZM94.5312 144.388V145.468H105.781V144.388H94.5312ZM120.726 140.248V141.49C120.726 144.262 117.666 146.746 114.804 147.286L115.47 148.528C118.728 147.79 122.022 145.036 122.022 141.49V140.248H120.726ZM120.996 140.248V141.49C120.996 145.054 124.308 147.79 127.548 148.528L128.214 147.286C125.37 146.746 122.292 144.28 122.292 141.49V140.248H120.996ZM114.21 151.984V153.208H128.952V151.984H114.21ZM143.044 139.132V151.372H144.466V139.132H143.044ZM140.452 144.154V145.396H143.53V144.154H140.452ZM139.498 139.438V150.832H140.902V139.438H139.498ZM133.81 153.82V155.044H144.988V153.82H133.81ZM133.81 149.896V154.504H135.304V149.896H133.81ZM136.51 140.518V140.932C136.51 144.208 134.926 146.818 130.912 148.492L131.65 149.59C136.168 147.646 137.968 144.496 137.968 140.518H136.51ZM131.65 140.518V141.742H137.032V140.518H131.65ZM136.366 143.56L130.894 143.92L131.128 145.162L136.366 144.604V143.56ZM147.291 141.904V143.128H155.355V141.904H147.291ZM151.323 144.208C149.307 144.208 147.831 145.738 147.831 147.934C147.831 150.112 149.307 151.642 151.323 151.642C153.357 151.642 154.833 150.112 154.833 147.934C154.833 145.738 153.357 144.208 151.323 144.208ZM151.323 145.486C152.583 145.486 153.501 146.494 153.501 147.934C153.501 149.374 152.583 150.382 151.323 150.382C150.081 150.382 149.181 149.374 149.181 147.934C149.181 146.494 150.081 145.486 151.323 145.486ZM159.657 139.132V155.404H161.097V139.132H159.657ZM157.065 145.972V147.214H160.143V145.972H157.065ZM156.183 139.492V154.612H157.587V139.492H156.183ZM150.603 139.6V142.66H152.079V139.6H150.603ZM170.401 140.734V141.418C170.401 143.56 167.611 145.432 164.749 145.846L165.325 147.034C168.601 146.476 171.697 144.334 171.697 141.418V140.734H170.401ZM170.779 140.734V141.418C170.779 144.334 173.857 146.476 177.151 147.034L177.709 145.846C174.865 145.432 172.057 143.56 172.057 141.418V140.734H170.779ZM170.455 149.194V155.404H171.931V149.194H170.455ZM163.885 148.402V149.626H178.591V148.402H163.885ZM165.253 140.14V141.346H177.169V140.14H165.253ZM186.852 144.946V146.188H189.966V144.946H186.852ZM183.81 140.662V143.758C183.81 146.548 182.478 149.464 180.246 150.778L181.182 151.912C183.558 150.454 184.98 147.16 184.98 143.758V140.662H183.81ZM184.098 140.662V143.704C184.098 146.872 185.412 150.112 187.752 151.552L188.616 150.382C186.474 149.086 185.25 146.314 185.25 143.704V140.662H184.098ZM192.828 139.132V155.404H194.268V139.132H192.828ZM189.534 139.474V154.594H190.938V139.474H189.534ZM200.603 147.502V152.38H202.079V147.502H200.603ZM206.615 147.502V152.38H208.109V147.502H206.615ZM197.003 152.092V153.334H211.745V152.092H197.003ZM204.347 140.158C200.891 140.158 198.425 141.796 198.425 144.352C198.425 146.89 200.891 148.528 204.347 148.528C207.785 148.528 210.251 146.89 210.251 144.352C210.251 141.796 207.785 140.158 204.347 140.158ZM204.347 141.346C206.957 141.346 208.811 142.534 208.811 144.352C208.811 146.152 206.957 147.34 204.347 147.34C201.737 147.34 199.865 146.152 199.865 144.352C199.865 142.534 201.737 141.346 204.347 141.346ZM215.298 154.088C215.614 154.088 215.881 153.977 216.098 153.754C216.32 153.531 216.432 153.265 216.432 152.954C216.432 152.638 216.32 152.371 216.098 152.154C215.881 151.932 215.614 151.82 215.298 151.82C214.987 151.82 214.721 151.932 214.498 152.154C214.275 152.371 214.164 152.638 214.164 152.954C214.164 153.265 214.275 153.531 214.498 153.754C214.721 153.977 214.987 154.088 215.298 154.088Z" fill="white"/>
<g opacity="0.4">
<path d="M60.0642 35H35C32.7909 35 31 36.7909 31 39V64.0642" stroke="white" stroke-width="12"/>
<path d="M31 203.936L31 229C31 231.209 32.7909 233 35 233L60.0642 233" stroke="white" stroke-width="12"/>
<path d="M229 64.0642L229 39C229 36.7909 227.209 35 225 35L199.936 35" stroke="white" stroke-width="12"/>
<path d="M199.936 233L225 233C227.209 233 229 231.209 229 229L229 203.936" stroke="white" stroke-width="12"/>
</g>
<defs>
<filter id="filter0_f_473_14583" x="0" y="0" width="260" height="308" filterUnits="userSpaceOnUse" color-interpolation-filters="sRGB">
<feFlood flood-opacity="0" result="BackgroundImageFix"/>
<feBlend mode="normal" in="SourceGraphic" in2="BackgroundImageFix" result="shape"/>
<feGaussianBlur stdDeviation="12" result="effect1_foregroundBlur_473_14583"/>
</filter>
<linearGradient id="paint0_linear_473_14583" x1="24" y1="24" x2="277.686" y2="226.874" gradientUnits="userSpaceOnUse">
<stop stop-color="#0047FF"/>
<stop offset="1" stop-color="#327FF3"/>
</linearGradient>
<linearGradient id="paint1_linear_473_14583" x1="0" y1="4" x2="260" y2="259" gradientUnits="userSpaceOnUse">
<stop stop-color="#327FF3"/>
<stop offset="1" stop-color="#0047FF"/>
</linearGradient>
</defs>
</svg>
