<svg width="28" height="28" viewBox="0 0 28 28" fill="none" xmlns="http://www.w3.org/2000/svg">
<path fill-rule="evenodd" clip-rule="evenodd" d="M5.88231 14.9888C5.88231 10.5061 9.51627 6.87214 13.999 6.87214C15.6932 6.87214 17.2641 7.39039 18.5646 8.27695C18.9069 8.51026 19.3735 8.42194 19.6068 8.07969C19.6434 8.02594 19.6722 7.96912 19.6932 7.91062L19.7664 8.3728L15.9443 8.97817C15.5352 9.04297 15.256 9.42715 15.3208 9.83626C15.3856 10.2454 15.7698 10.5245 16.1789 10.4597L20.7418 9.73701C21.1509 9.67221 21.43 9.28803 21.3653 8.87892L20.6426 4.31603C20.5778 3.90692 20.1936 3.6278 19.7845 3.69259C19.3754 3.75739 19.0962 4.14157 19.161 4.55068L19.5803 7.19803C19.5334 7.13742 19.4763 7.08304 19.4095 7.03753C17.8678 5.98659 16.004 5.37214 13.999 5.37214C8.68784 5.37214 4.38231 9.67767 4.38231 14.9888C4.38231 20.2999 8.68784 24.6055 13.999 24.6055C19.3101 24.6055 23.6156 20.2999 23.6156 14.9888C23.6156 14.5746 23.2799 14.2388 22.8656 14.2388C22.4514 14.2388 22.1156 14.5746 22.1156 14.9888C22.1156 19.4715 18.4817 23.1055 13.999 23.1055C9.51627 23.1055 5.88231 19.4715 5.88231 14.9888Z" fill="black"/>
</svg>
