<svg width="24" height="24" viewBox="0 0 24 24" fill="none" xmlns="http://www.w3.org/2000/svg">
<path fill-rule="evenodd" clip-rule="evenodd" d="M7.75 3C8.16421 3 8.5 3.33579 8.5 3.75V4H15.5V3.75C15.5 3.33579 15.8358 3 16.25 3C16.6642 3 17 3.33579 17 3.75V4H19C20.1046 4 21 4.89543 21 6V8.5V10V19C21 20.1046 20.1046 21 19 21H5C3.89543 21 3 20.1046 3 19V10V8.5V6C3 4.89543 3.89543 4 5 4H7V3.75C7 3.33579 7.33579 3 7.75 3ZM19.5 6V8.5H4.5V6C4.5 5.72386 4.72386 5.5 5 5.5H7V6.25C7 6.66421 7.33579 7 7.75 7C8.16421 7 8.5 6.66421 8.5 6.25V5.5H15.5V6.25C15.5 6.66421 15.8358 7 16.25 7C16.6642 7 17 6.66421 17 6.25V5.5H19C19.2761 5.5 19.5 5.72386 19.5 6ZM4.5 19V10H19.5V19C19.5 19.2761 19.2761 19.5 19 19.5H5C4.72386 19.5 4.5 19.2761 4.5 19ZM16.5125 12.5475C16.8149 12.2645 16.8306 11.7899 16.5475 11.4875C16.2645 11.1851 15.7899 11.1694 15.4875 11.4525L10.6849 15.9481L8.53921 13.7287C8.25131 13.4309 7.7765 13.4229 7.4787 13.7108C7.1809 13.9987 7.17288 14.4735 7.46079 14.7713L10.1194 17.5213C10.4041 17.8157 10.8722 17.8274 11.1712 17.5475L16.5125 12.5475Z" fill="#196EED"/>
</svg>
