<svg width="24" height="24" viewBox="0 0 24 24" fill="none" xmlns="http://www.w3.org/2000/svg">
<path fill-rule="evenodd" clip-rule="evenodd" d="M11.7584 13.0318C9.41278 12.9463 7.58059 10.9754 7.66612 8.62977C7.75166 6.28412 9.72252 4.45193 12.0682 4.53747C12.8331 4.56536 13.5414 4.79302 14.147 5.16796C14.2308 5.21987 14.4133 5.31036 14.6429 5.37579C14.8732 5.44142 15.2237 5.50291 15.6032 5.41348C16.0149 5.31647 16.3949 5.05609 16.6508 4.59918C16.8904 4.17124 17 3.61064 17 2.91797C17 2.50376 16.6643 2.16797 16.25 2.16797C15.8358 2.16797 15.5 2.50376 15.5 2.91797C15.5 3.47529 15.4079 3.74852 15.342 3.86637C15.2956 3.94924 15.2669 3.95255 15.2603 3.95331L15.2592 3.95347C15.2234 3.96189 15.1527 3.96136 15.0539 3.93321C14.9915 3.91541 14.9467 3.89498 14.9311 3.88787C14.9272 3.8861 14.9252 3.88516 14.9251 3.88529C14.925 3.8854 14.9264 3.88632 14.9295 3.88818C14.1099 3.38242 13.1518 3.07599 12.1228 3.03846C8.94931 2.92274 6.28284 5.40158 6.16712 8.57511C6.0514 11.7486 8.53024 14.4151 11.7038 14.5308C14.8773 14.6465 17.5438 12.1677 17.6595 8.99418C17.6858 8.27252 17.5776 7.57539 17.3568 6.92814C17.223 6.53612 16.7968 6.32677 16.4047 6.46055C16.0127 6.59432 15.8034 7.02056 15.9372 7.41258C16.0998 7.88919 16.18 8.40374 16.1605 8.93952C16.0749 11.2852 14.1041 13.1174 11.7584 13.0318ZM5.94926 19.8948C7.31841 18.0687 9.46752 16.994 11.7499 16.994C14.0315 16.994 16.18 18.068 17.5493 19.8931L18.1501 20.694C18.3987 21.0254 18.8688 21.0925 19.2001 20.8439C19.5315 20.5953 19.5986 20.1252 19.35 19.7939L18.7491 18.993C17.0966 16.7903 14.5036 15.494 11.7499 15.494C8.99531 15.494 6.40156 16.7911 4.74913 18.9949L4.14998 19.794C3.9015 20.1254 3.96872 20.5955 4.30013 20.844C4.63153 21.0925 5.10163 21.0253 5.35011 20.6939L5.94926 19.8948Z" fill="#A1A1A1"/>
</svg>
