<svg width="24" height="24" viewBox="0 0 24 24" fill="none" xmlns="http://www.w3.org/2000/svg">
<path fill-rule="evenodd" clip-rule="evenodd" d="M11.7584 13.0328C9.41278 12.9473 7.58059 10.9764 7.66612 8.63075C7.75166 6.2851 9.72252 4.45291 12.0682 4.53844C12.8331 4.56634 13.5414 4.794 14.147 5.16894C14.2308 5.22084 14.4133 5.31134 14.6429 5.37677C14.8732 5.4424 15.2237 5.50389 15.6032 5.41446C16.0149 5.31745 16.3949 5.05707 16.6508 4.60016C16.8904 4.17222 17 3.61162 17 2.91895C17 2.50473 16.6643 2.16895 16.25 2.16895C15.8358 2.16895 15.5 2.50473 15.5 2.91895C15.5 3.47627 15.4079 3.7495 15.342 3.86734C15.2956 3.95022 15.2669 3.95353 15.2603 3.95429L15.2592 3.95444C15.2234 3.96287 15.1527 3.96233 15.0539 3.93419C14.9915 3.91639 14.9467 3.89596 14.9311 3.88885C14.9272 3.88708 14.9252 3.88613 14.9251 3.88627C14.925 3.88638 14.9264 3.88729 14.9295 3.88916C14.1099 3.38339 13.1518 3.07696 12.1228 3.03944C8.94931 2.92372 6.28284 5.40256 6.16712 8.57609C6.0514 11.7496 8.53024 14.4161 11.7038 14.5318C14.8773 14.6475 17.5438 12.1687 17.6595 8.99516C17.6858 8.27349 17.5776 7.57636 17.3568 6.92911C17.223 6.5371 16.7968 6.32775 16.4047 6.46152C16.0127 6.5953 15.8034 7.02154 15.9372 7.41355C16.0998 7.89017 16.18 8.40471 16.1605 8.9405C16.0749 11.2861 14.1041 13.1183 11.7584 13.0328ZM5.94926 19.8957C7.31841 18.0697 9.46752 16.9949 11.7499 16.9949C14.0315 16.9949 16.18 18.069 17.5493 19.8941L18.1501 20.695C18.3987 21.0264 18.8688 21.0934 19.2001 20.8449C19.5315 20.5963 19.5986 20.1262 19.35 19.7948L18.7491 18.994C17.0966 16.7912 14.5036 15.4949 11.7499 15.4949C8.99531 15.4949 6.40156 16.792 4.74913 18.9959L4.14998 19.795C3.9015 20.1264 3.96872 20.5965 4.30013 20.845C4.63153 21.0935 5.10163 21.0263 5.35011 20.6949L5.94926 19.8957Z" fill="#196EED"/>
</svg>
