<svg width="235" height="21" viewBox="0 0 235 21" fill="none" xmlns="http://www.w3.org/2000/svg">
<path fill-rule="evenodd" clip-rule="evenodd" d="M8.42854 11.2852C6.26942 11.2852 4.51294 12.9754 4.51294 15.053C4.51294 17.1307 6.26942 18.821 8.42854 18.821C10.5877 18.821 12.3439 17.1307 12.3439 15.053C12.3439 12.9754 10.5877 11.2852 8.42854 11.2852ZM10.1458 15.053C10.1458 15.964 9.37548 16.7051 8.42875 16.7051C7.48223 16.7051 6.71168 15.964 6.71168 15.053C6.71168 14.1419 7.48223 13.4008 8.42875 13.4008C9.37548 13.4008 10.1458 14.1419 10.1458 15.053Z" fill="#FF425C"/>
<path fill-rule="evenodd" clip-rule="evenodd" d="M48.6209 0C48.0491 0 47.5842 0.44794 47.5842 0.998588V12.0542C47.5842 12.6046 48.0491 13.0526 48.6209 13.0526C49.1931 13.0526 49.6588 12.6046 49.6588 12.0542V0.998588C49.6588 0.44794 49.1931 0 48.6209 0Z" fill="#FF425C"/>
<path fill-rule="evenodd" clip-rule="evenodd" d="M22.0859 2.38281C19.9272 2.38281 18.1709 4.0733 18.1709 6.15125C18.1709 8.22879 19.9272 9.91907 22.0859 9.91907C24.2448 9.91907 26.0012 8.22879 26.0012 6.15125C26.0012 4.0733 24.2448 2.38281 22.0859 2.38281ZM23.803 6.15124C23.803 7.06229 23.0327 7.80339 22.0861 7.80339C21.1394 7.80339 20.3689 7.06229 20.3689 6.15124C20.3689 5.24019 21.1394 4.49889 22.0861 4.49889C23.0327 4.49889 23.803 5.24019 23.803 6.15124Z" fill="#FF425C"/>
<mask id="mask0_516_19472" style="mask-type:alpha" maskUnits="userSpaceOnUse" x="0" y="2" width="8" height="8">
<path fill-rule="evenodd" clip-rule="evenodd" d="M0 2.04688H7.83724V9.58887H0V2.04688Z" fill="white"/>
</mask>
<g mask="url(#mask0_516_19472)">
<path fill-rule="evenodd" clip-rule="evenodd" d="M5.76259 5.70194V8.59049C5.76259 9.14114 6.22828 9.58887 6.80071 9.58887C7.37229 9.58887 7.83713 9.14114 7.83713 8.59049V3.04567C7.83713 2.49502 7.37207 2.04688 6.79986 2.04688H1.03703C0.465239 2.04688 -0.000244141 2.49502 -0.000244141 3.04567C-0.000244141 3.31218 0.107978 3.5629 0.304397 3.75151C0.50039 3.94011 0.760294 4.04405 1.03639 4.04405H1.03703H4.03998C4.83695 4.04405 5.76259 4.9346 5.76259 5.70194Z" fill="#FF425C"/>
</g>
<path fill-rule="evenodd" clip-rule="evenodd" d="M42.2627 4.82273H44.2821C44.8543 4.82273 45.3195 4.37459 45.3195 3.82415C45.3195 3.55723 45.2111 3.3063 45.0145 3.11749C44.8187 2.9297 44.5592 2.82617 44.2844 2.82617H44.2821H36.9157H36.9136C36.6381 2.82617 36.3788 2.9297 36.1831 3.11728C35.9864 3.3063 35.878 3.55723 35.878 3.82415C35.878 4.37459 36.3435 4.82273 36.9151 4.82273H38.8939L36.0465 7.82937C35.6424 8.21888 35.6428 8.85214 36.0471 9.24125C36.2429 9.42965 36.5035 9.53338 36.7811 9.53338H36.7815C37.0591 9.53318 37.3196 9.42944 37.5145 9.24125L39.6481 6.97777C40.1649 6.4634 41.0371 6.50543 41.4825 6.97777L43.6427 9.24063C43.8385 9.42903 44.0993 9.53318 44.3762 9.53318H44.3766C44.6538 9.53318 44.9141 9.42924 45.1108 9.24043C45.5147 8.85132 45.5143 8.21806 45.1097 7.82896L42.2627 4.82273Z" fill="#FF425C"/>
<path fill-rule="evenodd" clip-rule="evenodd" d="M16.0353 0H16.035C11.5187 0.00512517 11.4765 0.0135305 11.442 0.0202957C11.0528 0.0971733 10.74 0.388078 10.6495 0.747045L10.6344 0.796452C10.6286 0.824128 10.6254 0.853034 10.6214 0.905105C10.6167 0.935856 10.6133 0.966402 10.6133 0.998383V10.6684C10.6133 11.2188 11.0781 11.6667 11.6499 11.6667C12.2223 11.6667 12.688 11.2188 12.688 10.6684V3.65466C12.688 2.88752 13.6135 1.99677 14.4104 1.99677H16.0348H16.0363C16.3122 1.99677 16.5719 1.89324 16.7677 1.70484C16.9641 1.51582 17.0725 1.2651 17.0725 0.998383C17.0725 0.44794 16.6073 0 16.0353 0Z" fill="#FF425C"/>
<path fill-rule="evenodd" clip-rule="evenodd" d="M33.7432 0H29.3581C29.2887 0 29.2188 0.00697023 29.1502 0.0202957C28.761 0.0971732 28.4482 0.388078 28.356 0.75053L28.3423 0.796452C28.3362 0.824742 28.3334 0.854058 28.3291 0.905105C28.3249 0.935856 28.321 0.966402 28.321 0.998383V12.054C28.321 12.6046 28.7861 13.0526 29.3577 13.0526C29.9305 13.0526 30.396 12.6046 30.396 12.054V3.65466C30.396 2.88752 31.3214 1.99677 32.1184 1.99677H33.7428C34.0225 1.99964 34.2799 1.89344 34.4761 1.70484C34.6725 1.51603 34.7807 1.2651 34.7807 0.998383C34.7807 0.44794 34.3155 0 33.7432 0Z" fill="#FF425C"/>
<path fill-rule="evenodd" clip-rule="evenodd" d="M69.1045 0C68.5325 0 68.0679 0.44794 68.0679 0.998588V4.64402H65.5127V0.998998C65.5127 0.448555 65.0479 0.000615021 64.4759 0.000615021C63.9037 0.000615021 63.438 0.448555 63.438 0.998998V12.0542C63.438 12.6046 63.9033 13.0526 64.475 13.0526C65.0473 13.0526 65.5127 12.6046 65.5127 12.0542L65.513 8.03237C65.513 7.26524 66.1614 6.64099 66.9588 6.64099H68.0679V12.0542C68.0679 12.6046 68.5325 13.0526 69.1045 13.0526C69.6767 13.0526 70.1422 12.6046 70.1422 12.0542V0.998588C70.1422 0.44794 69.6767 0 69.1045 0Z" fill="#FF425C"/>
<path fill-rule="evenodd" clip-rule="evenodd" d="M58.0901 4.14541H60.9618H60.962C61.2385 4.14541 61.4989 4.04147 61.6949 3.85266C61.8913 3.66385 61.9995 3.41312 61.9995 3.14682C61.9995 2.59638 61.5338 2.14844 60.9618 2.14844H55.608C55.4968 2.14844 55.386 2.1673 55.265 2.20727C55.2444 2.21281 55.2235 2.21896 55.2079 2.22552L55.1709 2.24336C54.8057 2.40736 54.5703 2.76202 54.5703 3.14682V8.69185C54.5703 9.24229 55.0354 9.69043 55.608 9.69043H61.093C61.665 9.69043 62.1305 9.2427 62.1305 8.69267C62.1305 8.14202 61.665 7.69387 61.093 7.69387H58.0903C57.2933 7.69387 56.6449 7.07004 56.6449 6.30331V5.52818C56.6498 4.76576 57.298 4.14541 58.0901 4.14541Z" fill="#FF425C"/>
<path fill-rule="evenodd" clip-rule="evenodd" d="M100.498 11.2852C98.3391 11.2852 96.5833 12.9754 96.5833 15.053C96.5833 17.1307 98.3391 18.821 100.498 18.821C102.657 18.821 104.414 17.1307 104.414 15.053C104.414 12.9754 102.657 11.2852 100.498 11.2852ZM102.216 15.053C102.216 15.964 101.445 16.7051 100.498 16.7051C99.5519 16.7051 98.7818 15.964 98.7818 15.053C98.7818 14.1419 99.5519 13.4008 100.498 13.4008C101.445 13.4008 102.216 14.1419 102.216 15.053Z" fill="#FF425C"/>
<path fill-rule="evenodd" clip-rule="evenodd" d="M104.992 0.903465C104.99 0.866974 104.986 0.830688 104.981 0.809982L104.97 0.762215C104.875 0.387873 104.563 0.0973783 104.171 0.0198857C104.103 0.00676523 104.033 0 103.963 0H99.6599C99.0879 0 98.6228 0.44794 98.6228 0.998383C98.6228 1.2651 98.7308 1.51603 98.9274 1.70484C99.1232 1.89303 99.3829 1.99656 99.6582 1.99656H99.6599H101.48C102.277 1.99656 102.926 2.6206 102.926 3.38794V3.39881C102.926 4.16574 102.277 4.78958 101.48 4.78958H99.6599C99.0879 4.78958 98.6228 5.23751 98.6228 5.78837C98.6228 6.05447 98.7306 6.30519 98.9268 6.494C99.1228 6.6824 99.3829 6.78614 99.6588 6.78614H99.6599H101.203C102 6.78614 102.926 7.67669 102.926 8.44403V10.6681C102.926 11.2186 103.391 11.6665 103.964 11.6665C104.535 11.6665 105 11.2186 105 10.6681V0.998383C105 0.974603 104.997 0.951232 104.992 0.903465Z" fill="#FF425C"/>
<path fill-rule="evenodd" clip-rule="evenodd" d="M91.319 6.07395C90.7031 6.07395 90.2148 6.54383 90.2148 7.1365V11.2643C90.2148 11.8568 90.7031 12.3269 91.319 12.3269H96.29C96.8846 12.3269 97.3304 11.9386 97.3304 11.3461C97.3304 10.7534 96.8422 10.3652 96.29 10.3652H93.761C92.9754 10.3652 92.4232 9.87478 92.4232 9.13921C92.4232 8.40345 92.9754 7.91307 93.761 7.91307H96.4734C97.0891 7.91307 97.5776 7.44299 97.5776 6.85052V2.72271C97.5776 2.13003 97.0891 1.66016 96.4734 1.66016H91.2553C90.6607 1.66016 90.2148 2.04823 90.2148 2.64091C90.2148 3.23358 90.7031 3.62187 91.2553 3.62187H94.0795C94.8652 3.62187 95.4174 4.11224 95.4174 4.84781C95.4174 5.58358 94.8652 6.07395 94.0795 6.07395H91.319Z" fill="#FF425C"/>
<mask id="mask1_516_19472" style="mask-type:alpha" maskUnits="userSpaceOnUse" x="76" y="13" width="9" height="8">
<path fill-rule="evenodd" clip-rule="evenodd" d="M76.2871 13.4629H84.1177V20.9991H76.2871V13.4629Z" fill="white"/>
</mask>
<g mask="url(#mask1_516_19472)">
<path fill-rule="evenodd" clip-rule="evenodd" d="M80.2023 13.4629C78.0436 13.4629 76.2871 15.1536 76.2871 17.2315C76.2871 19.3089 78.0436 20.9992 80.2023 20.9992C82.3614 20.9992 84.1177 19.3089 84.1177 17.2315C84.1177 15.1536 82.3614 13.4629 80.2023 13.4629ZM81.9194 17.2315C81.9194 18.1424 81.1491 18.8833 80.2021 18.8833C79.2554 18.8833 78.485 18.1424 78.485 17.2315C78.485 16.3201 79.2554 15.5786 80.2021 15.5786C81.1491 15.5786 81.9194 16.3201 81.9194 17.2315Z" fill="#FF425C"/>
</g>
<path fill-rule="evenodd" clip-rule="evenodd" d="M86.6739 10.5315H82.7955C81.9986 10.5315 81.24 9.76701 81.24 9.00028V8.51462H83.4836H83.4849C83.7608 8.51462 84.0207 8.41109 84.2165 8.22269C84.4131 8.03388 84.5213 7.78295 84.5213 7.51624C84.5213 6.96559 84.0559 6.51765 83.4839 6.51765H79.4909C78.7937 6.51765 78.292 6.00944 78.2215 5.27367H83.2512H83.2521C83.5282 5.27367 83.7883 5.16973 83.9845 4.98133C84.1805 4.79251 84.2887 4.54179 84.2887 4.27528C84.2887 3.72463 83.8232 3.27669 83.2514 3.27669H78.2215C78.2896 2.56983 78.7391 2.05731 79.4909 2.05731H83.4836H83.4847C83.7608 2.05731 84.0209 1.95358 84.2167 1.76497C84.4133 1.57616 84.5213 1.32564 84.5213 1.05914C84.5213 0.508692 84.0559 0.0605469 83.4839 0.0605469H77.171C76.5988 0.0605469 76.1335 0.508692 76.1335 1.05914V7.51624C76.1335 8.02896 76.6618 8.51441 77.1697 8.51441L79.1652 8.51462V8.99905C79.1652 9.7666 78.3478 10.5315 77.5508 10.5315H73.7626C73.1906 10.5315 72.7253 10.979 72.7253 11.5288C72.7253 12.0799 73.1906 12.5282 73.7626 12.5282H86.6739C87.2461 12.5282 87.7113 12.0805 87.7113 11.5301C87.7113 10.9794 87.2461 10.5315 86.6739 10.5315Z" fill="#FF425C"/>
<path fill-rule="evenodd" clip-rule="evenodd" d="M178.122 0C177.546 0 177.076 0.448148 177.076 0.998596V12.0543C177.076 12.6047 177.546 13.0527 178.122 13.0527C178.7 13.0527 179.169 12.6047 179.169 12.0543V0.998596C179.169 0.448148 178.7 0 178.122 0Z" fill="#A646F4"/>
<path fill-rule="evenodd" clip-rule="evenodd" d="M155.399 11.373C153.221 11.373 151.449 13.0631 151.449 15.1409C151.449 17.2189 153.221 18.9092 155.399 18.9092C157.577 18.9092 159.35 17.2189 159.35 15.1409C159.35 13.0631 157.577 11.373 155.399 11.373ZM157.132 15.1409C157.132 16.0522 156.355 16.7933 155.399 16.7933C154.444 16.7933 153.668 16.0522 153.668 15.1409C153.668 14.2299 154.444 13.4885 155.399 13.4885C156.355 13.4885 157.132 14.2299 157.132 15.1409Z" fill="#A646F4"/>
<path fill-rule="evenodd" clip-rule="evenodd" d="M155.074 6.05712C155.074 3.97936 153.302 2.28906 151.124 2.28906C148.946 2.28906 147.174 3.97936 147.174 6.05712C147.174 8.13447 148.946 9.82476 151.124 9.82476C153.302 9.82476 155.074 8.13447 155.074 6.05712ZM152.856 6.05711C152.856 6.96797 152.079 7.70907 151.124 7.70907C150.169 7.70907 149.392 6.96797 149.392 6.05711C149.392 5.14585 150.169 4.40413 151.124 4.40413C152.079 4.40413 152.856 5.14585 152.856 6.05711Z" fill="#A646F4"/>
<path fill-rule="evenodd" clip-rule="evenodd" d="M170.616 2.42188C168.438 2.42188 166.667 4.11237 166.667 6.18993C166.667 8.26749 168.438 9.95758 170.616 9.95758C172.794 9.95758 174.566 8.26749 174.566 6.18993C174.566 4.11237 172.794 2.42188 170.616 2.42188ZM172.349 6.18994C172.349 7.101 171.572 7.8419 170.616 7.8419C169.661 7.8419 168.884 7.101 168.884 6.18994C168.884 5.27909 169.661 4.53737 170.616 4.53737C171.572 4.53737 172.349 5.27909 172.349 6.18994Z" fill="#A646F4"/>
<path fill-rule="evenodd" clip-rule="evenodd" d="M134.292 3.54931H138.21C139.014 3.54931 139.948 4.44028 139.948 5.20742V8.26266C139.948 8.81311 140.418 9.26064 140.995 9.26064C141.572 9.26064 142.041 8.81311 142.041 8.26266V2.55154C142.041 2.00068 141.571 1.55273 140.995 1.55273H134.292C133.715 1.55273 133.245 2.00068 133.245 2.55154C133.245 2.81825 133.355 3.06918 133.553 3.25779C133.751 3.4466 134.007 3.5569 134.292 3.54931Z" fill="#A646F4"/>
<path fill-rule="evenodd" clip-rule="evenodd" d="M163.189 4.789H161.008C160.204 4.789 159.55 4.16516 159.55 3.39863V3.38756C159.55 2.62042 160.204 1.99637 161.008 1.99637H162.927H162.928C163.207 1.99637 163.469 1.89243 163.666 1.70444C163.865 1.51563 163.973 1.2649 163.973 0.998186C163.973 0.447534 163.504 0 162.927 0H158.504C158.432 0 158.361 0.00676528 158.293 0.0198858C157.9 0.096764 157.585 0.387671 157.494 0.746641L157.478 0.798303C157.473 0.823519 157.47 0.849965 157.468 0.876206L157.465 0.909008C157.46 0.938529 157.457 0.967435 157.457 0.998391V10.757C157.457 11.3077 157.926 11.7554 158.503 11.7554C159.08 11.7554 159.55 11.3077 159.55 10.757V8.44348C159.55 7.67613 160.484 6.78517 161.288 6.78517H163.188H163.19C163.468 6.78517 163.73 6.68164 163.928 6.49344C164.126 6.30504 164.235 6.05431 164.235 5.78759C164.235 5.23715 163.766 4.789 163.189 4.789Z" fill="#A646F4"/>
<path fill-rule="evenodd" clip-rule="evenodd" d="M143.979 12.1603H143.979H139.771C138.967 12.1603 138.033 11.2693 138.033 10.5022V7.61342C138.033 7.06297 137.564 6.61523 136.986 6.61523C136.409 6.61523 135.94 7.06297 135.94 7.61342V10.5022C135.94 11.2693 135.006 12.1603 134.202 12.1603H131.047H131.046C130.767 12.1603 130.505 12.2642 130.307 12.4526C130.109 12.6413 130 12.8922 130 13.1585C130 13.7091 130.469 14.1573 131.046 14.1573H143.979C144.556 14.1573 145.025 13.7091 145.025 13.1585C145.025 12.8922 144.916 12.6415 144.718 12.4526C144.52 12.2642 144.258 12.1603 143.979 12.1603Z" fill="#A646F4"/>
<path fill-rule="evenodd" clip-rule="evenodd" d="M230.459 11.2852C228.281 11.2852 226.509 12.9755 226.509 15.053C226.509 17.1308 228.281 18.8211 230.459 18.8211C232.637 18.8211 234.409 17.1308 234.409 15.053C234.409 12.9755 232.637 11.2852 230.459 11.2852ZM232.191 15.053C232.191 15.9641 231.414 16.705 230.459 16.705C229.504 16.705 228.727 15.9641 228.727 15.053C228.727 14.1419 229.504 13.4006 230.459 13.4006C231.414 13.4006 232.191 14.1419 232.191 15.053Z" fill="#A646F4"/>
<path fill-rule="evenodd" clip-rule="evenodd" d="M234.992 0.903472C234.99 0.866981 234.986 0.830899 234.981 0.809988L234.969 0.762426C234.874 0.387876 234.559 0.097379 234.164 0.0200908C234.095 0.00676528 234.025 0 233.954 0H229.613C229.036 0 228.566 0.447943 228.566 0.998391C228.566 1.26531 228.675 1.51604 228.874 1.70485C229.071 1.89305 229.333 1.99658 229.611 1.99658H229.613H231.449C232.253 1.99658 232.908 2.62062 232.908 3.38797V3.39884C232.908 4.16577 232.253 4.78961 231.449 4.78961H229.613C229.036 4.78961 228.566 5.23797 228.566 5.78841C228.566 6.05451 228.675 6.30545 228.873 6.49426C229.071 6.68246 229.333 6.78619 229.612 6.78619H229.613H231.17C231.974 6.78619 232.908 7.67675 232.908 8.44409V10.6682C232.908 11.2187 233.377 11.6666 233.954 11.6666C234.531 11.6666 235 11.2187 235 10.6682V0.998391C235 0.974815 234.997 0.951239 234.992 0.903472Z" fill="#A646F4"/>
<path fill-rule="evenodd" clip-rule="evenodd" d="M221.198 6.07399C220.577 6.07399 220.084 6.54407 220.084 7.13655V11.2642C220.084 11.8571 220.577 12.327 221.198 12.327H226.213C226.813 12.327 227.263 11.9385 227.263 11.3462C227.263 10.7533 226.77 10.3652 226.213 10.3652H223.662C222.869 10.3652 222.312 9.87484 222.312 9.13907C222.312 8.40329 222.869 7.91312 223.662 7.91312H226.398C227.019 7.91312 227.512 7.44303 227.512 6.85035V2.72251C227.512 2.13004 227.019 1.66016 226.398 1.66016H221.134C220.534 1.66016 220.084 2.04824 220.084 2.64092C220.084 3.2336 220.577 3.62188 221.134 3.62188H223.983C224.775 3.62188 225.333 4.11226 225.333 4.84783C225.333 5.5834 224.775 6.07399 223.983 6.07399H221.198Z" fill="#A646F4"/>
<path fill-rule="evenodd" clip-rule="evenodd" d="M198.787 0C198.21 0 197.742 0.447943 197.742 0.998391V4.64385H195.164V0.999006C195.164 0.448558 194.695 0.000615025 194.118 0.000615025C193.541 0.000615025 193.071 0.448558 193.071 0.999006V12.0543C193.071 12.6045 193.54 13.0527 194.117 13.0527C194.694 13.0527 195.164 12.6045 195.164 12.0543L195.164 8.03244C195.164 7.26509 195.818 6.64104 196.623 6.64104H197.742V12.0543C197.742 12.6045 198.21 13.0527 198.787 13.0527C199.365 13.0527 199.834 12.6045 199.834 12.0543V0.998391C199.834 0.447943 199.365 0 198.787 0Z" fill="#A646F4"/>
<path fill-rule="evenodd" clip-rule="evenodd" d="M187.675 4.04582H190.573H190.573C190.852 4.04582 191.114 3.94167 191.312 3.75286C191.51 3.56405 191.619 3.31353 191.619 3.04722C191.619 2.49657 191.15 2.04883 190.573 2.04883H185.171C185.059 2.04883 184.947 2.06769 184.825 2.10767C184.805 2.113 184.783 2.11935 184.768 2.12591L184.73 2.14375C184.362 2.30755 184.125 2.66242 184.125 3.04722V8.59229C184.125 9.14274 184.594 9.59088 185.171 9.59088H190.705C191.282 9.59088 191.752 9.14294 191.752 8.59311C191.752 8.04246 191.282 7.59431 190.705 7.59431H187.676C186.872 7.59431 186.217 6.97047 186.217 6.20353V5.4286C186.222 4.66597 186.876 4.04582 187.675 4.04582Z" fill="#A646F4"/>
<path fill-rule="evenodd" clip-rule="evenodd" d="M209.984 13.4629C207.806 13.4629 206.034 15.1536 206.034 17.2316C206.034 19.3091 207.806 20.9992 209.984 20.9992C212.162 20.9992 213.934 19.3091 213.934 17.2316C213.934 15.1536 212.162 13.4629 209.984 13.4629ZM211.716 17.2316C211.716 18.1424 210.939 18.8833 209.983 18.8833C209.028 18.8833 208.251 18.1424 208.251 17.2316C208.251 16.3203 209.028 15.5786 209.983 15.5786C210.939 15.5786 211.716 16.3203 211.716 17.2316Z" fill="#A646F4"/>
<path fill-rule="evenodd" clip-rule="evenodd" d="M216.512 10.5324H212.599C211.795 10.5324 211.03 9.76793 211.03 9.001V8.5264H213.293H213.295C213.573 8.5264 213.835 8.42287 214.033 8.23447C214.231 8.04566 214.34 7.79473 214.34 7.52801C214.34 6.97736 213.871 6.52942 213.294 6.52942H209.265C208.562 6.52942 208.056 6.0212 207.985 5.28522H213.059H213.06C213.338 5.28522 213.601 5.18149 213.799 4.99288C213.996 4.80427 214.106 4.55354 214.106 4.28703C214.106 3.73659 213.636 3.28844 213.059 3.28844H207.985C208.053 2.58157 208.507 2.06905 209.265 2.06905H213.293H213.295C213.573 2.06905 213.835 1.96531 214.033 1.77691C214.231 1.5881 214.34 1.33717 214.34 1.07107C214.34 0.520414 213.871 0.0722656 213.294 0.0722656H206.925C206.348 0.0722656 205.878 0.520414 205.878 1.07107V7.52801C205.878 8.04074 206.411 8.5262 206.924 8.5262L208.937 8.5264V8.99977C208.937 9.76752 208.112 10.5324 207.308 10.5324H203.486C202.909 10.5324 202.44 10.9799 202.44 11.53C202.44 12.0808 202.909 12.5292 203.486 12.5292H216.512C217.089 12.5292 217.559 12.0815 217.559 11.531C217.559 10.9804 217.089 10.5324 216.512 10.5324Z" fill="#A646F4"/>
<path d="M121.505 5.24414L115.494 11.2545" stroke="#C0C0C0" stroke-linecap="round"/>
<path d="M115.494 5.24414L121.505 11.2545" stroke="#C0C0C0" stroke-linecap="round"/>
</svg>
