<svg width="24" height="24" viewBox="0 0 24 24" fill="none" xmlns="http://www.w3.org/2000/svg">
<path fill-rule="evenodd" clip-rule="evenodd" d="M2.59437 0.955723C2.98676 1.08838 3.19732 1.51402 3.06467 1.90642C2.98238 2.14982 3.09307 2.41653 3.32352 2.53014L3.45055 2.59277L3.11892 3.26546L3.45055 2.59277C3.54327 2.63848 3.64526 2.66225 3.74864 2.66225H10.7629C12.5558 2.66225 13.8692 4.35026 13.4286 6.08813L13.0261 7.67543C12.7168 8.89529 11.6189 9.74955 10.3605 9.74955H6.31534C5.10489 9.74955 4.03677 8.95808 3.68442 7.80004L3.05331 5.7258C2.93274 5.32953 3.15624 4.91054 3.55252 4.78997C3.9488 4.66939 4.36779 4.8929 4.48836 5.28918L5.11947 7.36341C5.27962 7.88979 5.76513 8.24955 6.31534 8.24955H10.3605C10.9325 8.24955 11.4316 7.86125 11.5721 7.30677L11.9746 5.71947C12.1749 4.92953 11.5779 4.16225 10.7629 4.16225H3.74864C3.41524 4.16225 3.08631 4.08558 2.78728 3.93816L2.66025 3.87553C1.75521 3.42935 1.32052 2.38191 1.64367 1.42602C1.77633 1.03363 2.20197 0.823066 2.59437 0.955723ZM4.89584 13.1663C5.17198 13.1663 5.39584 12.9425 5.39584 12.6663C5.39584 12.3902 5.17198 12.1663 4.89584 12.1663C4.61969 12.1663 4.39584 12.3902 4.39584 12.6663C4.39584 12.9425 4.61969 13.1663 4.89584 13.1663ZM4.89584 14.6663C6.0004 14.6663 6.89584 13.7709 6.89584 12.6663C6.89584 11.5618 6.0004 10.6663 4.89584 10.6663C3.79127 10.6663 2.89584 11.5618 2.89584 12.6663C2.89584 13.7709 3.79127 14.6663 4.89584 14.6663ZM12.0625 12.6663C12.0625 12.9425 11.8386 13.1663 11.5625 13.1663C11.2864 13.1663 11.0625 12.9425 11.0625 12.6663C11.0625 12.3902 11.2864 12.1663 11.5625 12.1663C11.8386 12.1663 12.0625 12.3902 12.0625 12.6663ZM13.5625 12.6663C13.5625 13.7709 12.6671 14.6663 11.5625 14.6663C10.4579 14.6663 9.5625 13.7709 9.5625 12.6663C9.5625 11.5618 10.4579 10.6663 11.5625 10.6663C12.6671 10.6663 13.5625 11.5618 13.5625 12.6663Z" fill="#196EED"/>
<rect x="7" y="7" width="17" height="17" rx="4" fill="white"/>
<path d="M10.3645 12.1348V11.0098C10.3645 10.4575 10.8122 10.0098 11.3645 10.0098H12.4895" stroke="#196EED" stroke-width="1.5" stroke-linecap="square"/>
<path d="M20.6354 18.5098L20.6354 19.6348C20.6354 20.1871 20.1877 20.6348 19.6354 20.6348L18.5104 20.6348" stroke="#196EED" stroke-width="1.5" stroke-linecap="square"/>
<path d="M18.5104 10.0098L19.6354 10.0098C20.1877 10.0098 20.6354 10.4575 20.6354 11.0098L20.6354 12.1348" stroke="#196EED" stroke-width="1.5" stroke-linecap="square"/>
<path d="M12.4895 20.6348L11.3645 20.6348C10.8122 20.6348 10.3645 20.1871 10.3645 19.6348L10.3645 18.5098" stroke="#196EED" stroke-width="1.5" stroke-linecap="square"/>
<path d="M8.94788 15.5H22.052" stroke="#196EED" stroke-width="1.5" stroke-linecap="square"/>
</svg>
