<svg width="25" height="24" viewBox="0 0 25 24" fill="none" xmlns="http://www.w3.org/2000/svg">
<path fill-rule="evenodd" clip-rule="evenodd" d="M2.59437 0.955723C2.98676 1.08838 3.19732 1.51402 3.06467 1.90642C2.98238 2.14982 3.09307 2.41653 3.32352 2.53014L3.45055 2.59277L3.11892 3.26546L3.45055 2.59277C3.54327 2.63848 3.64526 2.66225 3.74864 2.66225H10.7629C12.5558 2.66225 13.8692 4.35026 13.4286 6.08813L13.0261 7.67543C12.7168 8.89529 11.6189 9.74955 10.3605 9.74955H6.31534C5.10489 9.74955 4.03677 8.95808 3.68442 7.80004L3.05331 5.7258C2.93274 5.32953 3.15624 4.91054 3.55252 4.78997C3.9488 4.66939 4.36779 4.8929 4.48836 5.28918L5.11947 7.36341C5.27962 7.88979 5.76513 8.24955 6.31534 8.24955H10.3605C10.9325 8.24955 11.4316 7.86125 11.5721 7.30677L11.9746 5.71947C12.1749 4.92953 11.5779 4.16225 10.7629 4.16225H3.74864C3.41524 4.16225 3.08631 4.08558 2.78728 3.93816L2.66025 3.87553C1.75521 3.42935 1.32052 2.38191 1.64367 1.42602C1.77633 1.03363 2.20197 0.823066 2.59437 0.955723ZM4.89584 13.1663C5.17198 13.1663 5.39584 12.9425 5.39584 12.6663C5.39584 12.3902 5.17198 12.1663 4.89584 12.1663C4.61969 12.1663 4.39584 12.3902 4.39584 12.6663C4.39584 12.9425 4.61969 13.1663 4.89584 13.1663ZM4.89584 14.6663C6.0004 14.6663 6.89584 13.7709 6.89584 12.6663C6.89584 11.5618 6.0004 10.6663 4.89584 10.6663C3.79127 10.6663 2.89584 11.5618 2.89584 12.6663C2.89584 13.7709 3.79127 14.6663 4.89584 14.6663ZM12.0625 12.6663C12.0625 12.9425 11.8386 13.1663 11.5625 13.1663C11.2864 13.1663 11.0625 12.9425 11.0625 12.6663C11.0625 12.3902 11.2864 12.1663 11.5625 12.1663C11.8386 12.1663 12.0625 12.3902 12.0625 12.6663ZM13.5625 12.6663C13.5625 13.7709 12.6671 14.6663 11.5625 14.6663C10.4579 14.6663 9.5625 13.7709 9.5625 12.6663C9.5625 11.5618 10.4579 10.6663 11.5625 10.6663C12.6671 10.6663 13.5625 11.5618 13.5625 12.6663Z" fill="#196EED"/>
<circle cx="16.5" cy="12.5" r="7.5" fill="white"/>
<path fill-rule="evenodd" clip-rule="evenodd" d="M16.3369 15.0137C14.7961 14.9576 13.5926 13.663 13.6488 12.1222C13.705 10.5814 14.9996 9.37793 16.5403 9.43411C17.0433 9.45245 17.5081 9.60198 17.9057 9.8481C17.9826 9.89575 18.1305 9.96794 18.3121 10.0197C18.4945 10.0716 18.7835 10.1241 19.1025 10.0489C19.4536 9.9662 19.7739 9.7434 19.9852 9.36609C20.1802 9.01774 20.2605 8.57874 20.2605 8.06836C20.2605 7.65415 19.9247 7.31836 19.5105 7.31836C19.0963 7.31836 18.7605 7.65415 18.7605 8.06836C18.7605 8.33664 18.7284 8.4906 18.7023 8.57051C18.6909 8.56658 18.6811 8.56259 18.6735 8.55929L18.673 8.55906C18.0649 8.18764 17.3556 7.96284 16.595 7.93511C14.2264 7.84873 12.2362 9.69888 12.1498 12.0675C12.0634 14.4362 13.9136 16.4264 16.2822 16.5127C18.6509 16.5991 20.6411 14.749 20.7274 12.3803C20.7471 11.842 20.6664 11.3216 20.5014 10.8382C20.3677 10.4462 19.9414 10.2369 19.5494 10.3707C19.1574 10.5044 18.948 10.9307 19.0818 11.3227C19.1885 11.6354 19.2413 11.9732 19.2284 12.3257C19.1722 13.8664 17.8777 15.0699 16.3369 15.0137ZM18.664 8.55486C18.664 8.55484 18.6649 8.55524 18.6665 8.55609L18.664 8.55486ZM12.3891 20.2248C13.3176 18.9864 14.7751 18.2576 16.3229 18.2576C17.8702 18.2576 19.3272 18.986 20.2558 20.2237L20.6814 20.791C20.93 21.1224 21.4001 21.1894 21.7314 20.9409C22.0628 20.6923 22.1298 20.2222 21.8813 19.8909L21.4557 19.3235C20.2438 17.7082 18.3423 16.7576 16.3229 16.7576C14.3029 16.7576 12.4008 17.7088 11.189 19.325L10.7646 19.891C10.5161 20.2224 10.5833 20.6925 10.9148 20.941C11.2462 21.1895 11.7162 21.1223 11.9647 20.7908L12.3891 20.2248Z" fill="#196EED"/>
</svg>
