<svg width="24" height="24" viewBox="0 0 24 24" fill="none" xmlns="http://www.w3.org/2000/svg">
<path fill-rule="evenodd" clip-rule="evenodd" d="M3.77102 1.78971C4.16342 1.92236 4.37398 2.348 4.24132 2.7404C4.05768 3.28362 4.30471 3.87887 4.81903 4.13243L5.03806 4.24041C5.20998 4.32517 5.3991 4.36925 5.59079 4.36925H17.4292C19.222 4.36925 20.5355 6.05726 20.0948 7.79513L18.984 12.1761C18.6747 13.3959 17.5769 14.2502 16.3184 14.2502H8.73158C7.52113 14.2502 6.45301 13.4587 6.10066 12.3007L4.9383 8.48042C4.81773 8.08415 5.04124 7.66516 5.43751 7.54459C5.83379 7.42402 6.25278 7.64752 6.37335 8.04379L7.53571 11.8641C7.69587 12.3904 8.18138 12.7502 8.73158 12.7502H16.3184C16.8904 12.7502 17.3895 12.3619 17.5301 11.8074L18.6408 7.42647C18.8411 6.63653 18.2441 5.86925 17.4292 5.86925H5.59079C5.16908 5.86925 4.75302 5.77227 4.37479 5.5858L4.15576 5.47782C2.96686 4.89169 2.39581 3.51572 2.82033 2.26001C2.95299 1.86761 3.37863 1.65705 3.77102 1.78971ZM7.34359 20.5004C8.17202 20.5004 8.84359 19.8288 8.84359 19.0004C8.84359 18.1719 8.17202 17.5004 7.34359 17.5004C6.51516 17.5004 5.84359 18.1719 5.84359 19.0004C5.84359 19.8288 6.51516 20.5004 7.34359 20.5004ZM7.34359 22.0004C9.00045 22.0004 10.3436 20.6572 10.3436 19.0004C10.3436 17.3435 9.00045 16.0004 7.34359 16.0004C5.68674 16.0004 4.34359 17.3435 4.34359 19.0004C4.34359 20.6572 5.68674 22.0004 7.34359 22.0004ZM18.8436 19.0004C18.8436 19.8288 18.172 20.5004 17.3436 20.5004C16.5152 20.5004 15.8436 19.8288 15.8436 19.0004C15.8436 18.1719 16.5152 17.5004 17.3436 17.5004C18.172 17.5004 18.8436 18.1719 18.8436 19.0004ZM20.3436 19.0004C20.3436 20.6572 19.0004 22.0004 17.3436 22.0004C15.6867 22.0004 14.3436 20.6572 14.3436 19.0004C14.3436 17.3435 15.6867 16.0004 17.3436 16.0004C19.0004 16.0004 20.3436 17.3435 20.3436 19.0004Z" fill="#A1A1A1"/>
</svg>
