<svg width="24" height="24" viewBox="0 0 24 24" fill="none" xmlns="http://www.w3.org/2000/svg">
<path fill-rule="evenodd" clip-rule="evenodd" d="M18.8262 0.519881C18.561 0.201673 18.0881 0.15868 17.7699 0.423853C17.4517 0.689026 17.4087 1.16195 17.6738 1.48016L17.7178 1.53295C18.0242 1.90054 17.9076 2.45769 17.4796 2.67168C17.3766 2.7232 17.263 2.75002 17.1478 2.75002H7.14657C6.45794 2.75002 5.83333 3.15387 5.55072 3.78184L3.11587 9.19223C3.06378 9.30797 3.04347 9.42994 3.05121 9.54835C3.01771 9.69349 3 9.84469 3 10V19C3 20.1046 3.89543 21 5 21H19C20.1046 21 21 20.1046 21 19V10C21 9.84445 20.9822 9.69305 20.9486 9.54769C20.9563 9.4295 20.9359 9.30777 20.8839 9.19225L19.3791 5.84817C19.2091 5.47044 18.7651 5.30202 18.3874 5.472C18.0097 5.64198 17.8412 6.08599 18.0112 6.46372L18.7026 8.00002H12.75V4.25002H17.1478C17.4958 4.25002 17.8391 4.16898 18.1504 4.01332C19.4436 3.36675 19.7957 1.68334 18.8702 0.57267L18.8262 0.519881ZM11.25 4.25002V8.00002H5.2973L6.91859 4.39742C6.95896 4.30771 7.04819 4.25002 7.14657 4.25002H11.25ZM19 9.50002C19.2761 9.50002 19.5 9.72388 19.5 10V19C19.5 19.2762 19.2761 19.5 19 19.5H5C4.72386 19.5 4.5 19.2762 4.5 19V10C4.5 9.72388 4.72386 9.50002 5 9.50002H19ZM13.5 16.5V14.5H16.5V16.5H13.5ZM12 14C12 13.4477 12.4477 13 13 13H17C17.5523 13 18 13.4477 18 14V17C18 17.5523 17.5523 18 17 18H13C12.4477 18 12 17.5523 12 17V14Z" fill="#A1A1A1"/>
</svg>
