<svg width="24" height="24" viewBox="0 0 24 24" fill="none" xmlns="http://www.w3.org/2000/svg">
<path d="M19 4H16.1166C15.349 4 14.6491 4.43935 14.3154 5.13068L11.1988 11.5881C11.068 11.8592 11 12.1564 11 12.4574V16C11 17.1046 11.8954 18 13 18H19C20.1046 18 21 17.1046 21 16V12V6C21 4.89543 20.1046 4 19 4Z" stroke="#A1A1A1" stroke-width="1.5" stroke-linecap="round"/>
<path d="M4.5 17H8.5C9.60457 17 10.5 16.1046 10.5 15V3" stroke="#A1A1A1" stroke-width="1.5" stroke-linecap="round"/>
<path d="M6.5 14H3.5C2.94772 14 2.5 13.5523 2.5 13V9C2.5 8.44772 2.94772 8 3.5 8H6.5C7.05228 8 7.5 8.44772 7.5 9V13C7.5 13.5523 7.05228 14 6.5 14Z" stroke="#A1A1A1" stroke-width="1.5" stroke-linecap="round"/>
<circle cx="20" cy="18" r="2.25" fill="white" stroke="#A1A1A1" stroke-width="1.5"/>
<circle cx="12" cy="18" r="2.25" fill="white" stroke="#A1A1A1" stroke-width="1.5"/>
<path d="M15 12H20.5" stroke="#A1A1A1" stroke-width="1.5" stroke-linecap="round"/>
</svg>
